# xmcd
#
# Track frame offsets:
#	183
#	16693
#	33493
#	46345
#	70420
#	86685
#	98545
#	111790
#	125940
#	141750
#	158548
#	171115
#	184978
#	198705
#	210910
#
# Disc length: 2968 seconds
#
# Revision: 0
# Processed by: cddbd v1.4b41PL1 Copyright (c) Steve Scherf et al.
# Submitted via: audiograbber 1.80
#
DISCID=cb0b960f
DTITLE=The Righteous Brothers - The Greatest Hits
DYEAR=1900
DGENRE=
TTITLE0=Unchained Melody
TTITLE1=You've Lost That Lovin Feeling
TTITLE2=Ebb Tide
TTITLE3=(You're My) Soul and Inspiration
TTITLE4=Rat Race
TTITLE5=Turn On Your Love Light
TTITLE6=Hey Girl
TTITLE7=Mine All Mine
TTITLE8=Bring It On Home To Me
TTITLE9=He Will Break Your Heart
TTITLE10=Stand By
TTITLE11=In The Midnight Hour
TTITLE12=He
TTITLE13=I'm Leaving It All Up To You
TTITLE14=A Change Is Gonna Come
EXTD=New Submission
EXTT0=
EXTT1=
EXTT2=
EXTT3=
EXTT4=
EXTT5=
EXTT6=
EXTT7=
EXTT8=
EXTT9=
EXTT10=
EXTT11=
EXTT12=
EXTT13=
EXTT14=
PLAYORDER=
